# xmcd
#
# Track frame offsets:
# 150
# 20283
# 34698
# 50345
# 67803
# 89602
# 110149
# 131719
# 146384
#
# Disc length: 2332 seconds
#
#
# Revision: 0
# Processed by: cddbd v1.5.1PL2 Copyright (c) Steve Scherf et al.
# Submitted via: FreeRIP 2.944 
#
DISCID=77091a09
DTITLE=Rodney Crowell - Ain't Living Long Like This
DYEAR=1977
DGENRE=Country
TTITLE0=Elvira
TTITLE1=(Now and Then There's)A Fool Such As I
TTITLE2=Leaving Louisiana In The Broadlight
TTITLE3=Voila, An American Dream
TTITLE4=I Ain't Living Long Loike This
TTITLE5=Baby, Better Start Turnin'Em Down
TTITLE6=Song For The Life
TTITLE7=I Thought I Heard You Callin' My Name
TTITLE8=California Earthquake (A whole Lotta Shakin'Goin' On)
EXTD=
EXTT0=
EXTT1=
EXTT2=
EXTT3=
EXTT4=
EXTT5=
EXTT6=
EXTT7=
EXTT8=
PLAYORDER=
